<svg xmlns="http://www.w3.org/2000/svg" xmlns:xlink="http://www.w3.org/1999/xlink" viewBox="0 0 921.94 1750.21">
  <defs>
    <style>
      .cls-1, .cls-2, .cls-3 {
        stroke: #e6e6e6;
        stroke-miterlimit: 10;
      }

      .cls-1 {
        fill: url(#linear-gradient);
      }

      .cls-2 {
        fill: url(#linear-gradient-2);
      }

      .cls-3 {
        fill: url(#linear-gradient-3);
      }

      .cls-4 {
        fill: url(#linear-gradient-4);
      }

      .cls-5 {
        fill: url(#linear-gradient-5);
      }

      .cls-6 {
        fill: url(#linear-gradient-6);
      }
    </style>
    <linearGradient id="linear-gradient" x1="628.7" y1="827.2" x2="1102.54" y2="1089.99" gradientTransform="translate(-596.6 2263.6) rotate(-90)" gradientUnits="userSpaceOnUse">
      <stop offset="0" stop-color="#ccc"/>
      <stop offset="0.12" stop-color="#d7d7d7"/>
      <stop offset="0.34" stop-color="#e6e6e6"/>
      <stop offset="0.6" stop-color="#efefef"/>
      <stop offset="1" stop-color="#f2f2f2"/>
    </linearGradient>
    <linearGradient id="linear-gradient-2" x1="1169.07" y1="782.57" x2="1618.83" y2="1032.01" xlink:href="#linear-gradient"/>
    <linearGradient id="linear-gradient-3" x1="1677.45" y1="847.6" x2="2151.3" y2="1110.39" xlink:href="#linear-gradient"/>
    <linearGradient id="linear-gradient-4" x1="649.4" y1="1420.1" x2="908.4" y2="1420.1" gradientUnits="userSpaceOnUse">
      <stop offset="0" stop-color="#ffa10d"/>
      <stop offset="0.91" stop-color="#ff21a3"/>
      <stop offset="1" stop-color="#ff14b3"/>
    </linearGradient>
    <linearGradient id="linear-gradient-5" x1="2260.58" y1="940.1" x2="510.37" y2="940.1" gradientTransform="translate(-596.6 2263.6) rotate(-90)" gradientUnits="userSpaceOnUse">
      <stop offset="0" stop-color="#ff14b3"/>
      <stop offset="0.09" stop-color="#ff21a3"/>
      <stop offset="1" stop-color="#ffa10d"/>
    </linearGradient>
    <linearGradient id="linear-gradient-6" x1="687.38" y1="330.36" x2="908.91" y2="330.36" gradientTransform="matrix(1, 0, 0, 1, 0, 0)" xlink:href="#linear-gradient-5"/>
  </defs>
  <title>Asset 1</title>
  <g id="Layer_2" data-name="Layer 2">
    <g id="circle1">
      <path class="cls-1" d="M330.74,1148.51a269.28,269.28,0,0,1,134.91,36c81.18,46.79,136,134.45,136.05,234.66v.26c0,149.41-121.55,271-271,271s-271-121.56-271-271v-.26h59.77c.14-113.4,101.13-206.42,213.46-211l-11-1.06a328.59,328.59,0,0,1-115-28.7,268.77,268.77,0,0,1,115-29.79C324.9,1148.56,327.82,1148.51,330.74,1148.51Z"/>
    </g>
    <g id="circle2">
      <path class="cls-2" d="M343.5,1143.07q-10.85,0-21.5-.85A269,269,0,0,1,208.57,1107c-81.24-46.85-136-134.61-136-234.93,0-104.86,59.88-196,147.24-241A268.69,268.69,0,0,1,322,602q10.65-.84,21.5-.85c49.08,0,55.91,59.33,12.76,59.33C344.69,660.47,322,662,322,662a215.08,215.08,0,0,1,21.5-1.08c116.45,0,211.19,94.74,211.19,211.19S460,1083.3,343.5,1083.3c-7.26,0-15.68.43-12.76.43"/>
    </g>
    <g id="circle3">
      <path class="cls-3" d="M356.26,63.77c149.41,0,271,121.55,271,271,0,104.86-59.87,196-147.23,241a270.47,270.47,0,0,1-258.66-6.1A329,329,0,0,1,322,547.05v-3.9C221.78,526.73,145.07,439.53,145.07,334.73s76.71-192,176.93-208.41V65.93A271,271,0,0,1,356.26,63.77Z"/>
    </g>
    <g id="snake">
      <path class="cls-4" d="M908.4,1406.6h-259c-17.38,0-17.41,27,0,27h259c17.37,0,17.4-27,0-27Z"/>
      <path class="cls-5" d="M344.46.21Q333.12.6,322,1.76V126.21c11.15-1.83,23.34-4,35-4,116.45,0,210.46,92.07,210.46,208.52s-94.75,211.2-211.2,211.2c-3.87,0-8.94.12-14,.29q-10.31,0-20.47.68a327,327,0,0,0-100.6,22.76q-11.46,4.58-22.49,10l-1.1.53-.1,0a329,329,0,0,0-36.85,21.21l.1.07-.2.13a334.2,334.2,0,0,0-12.75,545.77l.34.24-.25.16a329.07,329.07,0,0,0,135.21,58.5l1.17.22,2.28.39a328.89,328.89,0,0,0,35.24,4.21h.25a64.32,64.32,0,0,0,8.69,1.12c116.36,0,211,94.6,211.19,210.93v.26c0,116.45-94.74,211.2-211.19,211.2s-211.2-94.75-211.2-211.2v-.26H0v.26c0,182.66,148.08,330.74,330.74,330.74s330.74-148.08,330.74-330.74v-.26c-.08-109.37-53.26-206.32-135.14-266.47l-.42-.3.08,0a329.28,329.28,0,0,0-59.06-34.82h0c-4.52-2.07-9.75-4.11-15.49-6.11a327.87,327.87,0,0,0-71.77-19.13c-30.91-6.75-56.67-11.12-56.67-11.12C216.68,1070.33,132.23,984.91,132.23,875S215.48,674.47,321.8,663.6c0,0,22.9-1.53,34.23-1.53a327.5,327.5,0,0,0,122.08-23.44,18.69,18.69,0,0,0,3.08-1.59,329.53,329.53,0,0,0,57.91-30.67C628.24,547.13,687,445.8,687,330.73,687,152,545.26,6.42,368.06.21Q362.19,0,356.26,0T344.46.21Z"/>
      <path class="cls-6" d="M687.4,344.11l74.91-.17,119.32-.27,27.27-.06c17.37,0,17.4-27,0-27l-74.92.17L714.66,317l-27.26.07c-17.38,0-17.41,27,0,27Z"/>
    </g>
  </g>
</svg>
