<svg xmlns="http://www.w3.org/2000/svg" viewBox="0 0 585.85 424.07">
  <defs>
    <style>
      .cls-1 {
        fill: #f2f2f2;
      }

      .cls-1, .cls-12, .cls-16 {
        stroke: #ccc;
      }

      .cls-1, .cls-11, .cls-12, .cls-13, .cls-14, .cls-2, .cls-23 {
        stroke-miterlimit: 10;
      }

      .cls-2 {
        fill: #ff14b3;
        stroke: #ff7900;
      }

      .cls-12, .cls-13, .cls-15, .cls-16, .cls-17, .cls-18, .cls-19, .cls-2, .cls-20, .cls-21, .cls-22, .cls-24 {
        stroke-width: 4px;
      }

      .cls-14, .cls-25, .cls-3 {
        fill: #292929;
      }

      .cls-3, .cls-6, .cls-8 {
        opacity: 0.8;
      }

      .cls-4 {
        fill: #b47ec8;
      }

      .cls-5 {
        fill: #ffa10d;
      }

      .cls-23, .cls-6 {
        fill: #ff5c0d;
      }

      .cls-7 {
        fill: #ff8c00;
      }

      .cls-8 {
        fill: #e175e0;
      }

      .cls-9 {
        fill: #dca6d8;
      }

      .cls-10, .cls-15, .cls-16, .cls-17, .cls-18, .cls-19, .cls-20, .cls-21, .cls-22, .cls-24 {
        fill: none;
      }

      .cls-11, .cls-12, .cls-13 {
        fill: #737373;
      }

      .cls-11, .cls-13, .cls-19 {
        stroke: #737373;
      }

      .cls-11, .cls-12, .cls-13, .cls-15, .cls-16, .cls-17, .cls-18, .cls-19, .cls-20, .cls-21, .cls-22, .cls-24 {
        stroke-linecap: round;
      }

      .cls-11, .cls-23 {
        stroke-width: 8px;
      }

      .cls-14, .cls-24 {
        stroke: #292929;
      }

      .cls-15 {
        stroke: #ff8c00;
      }

      .cls-15, .cls-16, .cls-17, .cls-18, .cls-19, .cls-20, .cls-21, .cls-22, .cls-24 {
        stroke-linejoin: round;
      }

      .cls-17 {
        stroke: #fcbb6d;
      }

      .cls-18 {
        stroke: #e175e0;
      }

      .cls-20 {
        stroke: #ff14b3;
      }

      .cls-21 {
        stroke: #dca6d8;
      }

      .cls-22 {
        stroke: #f2f2f2;
      }

      .cls-23 {
        stroke: #fff;
      }
    </style>
  </defs>
  <title>homePage_icon</title>
  <g id="Layer_2" data-name="Layer 2">
    <g id="DES">
      <path id="des-2" data-name="des" class="cls-1" d="M394.67.5H13C6.13.5.5,6.46.5,13.74V410.32c0,7.29,5.63,13.25,12.51,13.25H211"/>
      <g id="des-3" data-name="des">
        <circle class="cls-2" cx="60.21" cy="69.16" r="33.55"/>
        <rect class="cls-3" x="122.83" y="102.71" width="280.69" height="138.67" rx="3.25" ry="3.25"/>
        <path class="cls-4" d="M158.32,205.75l38.3-69.24A3.28,3.28,0,0,1,202,136L234.83,176a3.28,3.28,0,0,0,5,.06L256,157.32a3.28,3.28,0,0,1,5.27.43l29.57,47.87a3.28,3.28,0,0,1-2.79,5H161.19A3.28,3.28,0,0,1,158.32,205.75Z"/>
        <circle class="cls-5" cx="282.3" cy="134.81" r="12.54"/>
        <rect class="cls-6" x="26.81" y="265.81" width="158.08" height="95.22" rx="3.25" ry="3.25"/>
        <path class="cls-7" d="M66.55,336.57,88.12,289a1.69,1.69,0,0,1,3-.34l18.47,27.42a1.65,1.65,0,0,0,2.83,0l9.12-12.83a1.67,1.67,0,0,1,3,.29l16.65,32.87c.76,1.51-.13,3.44-1.57,3.44H68.17C66.76,339.91,65.87,338.07,66.55,336.57Z"/>
        <ellipse class="cls-7" cx="136.38" cy="287.85" rx="7.06" ry="8.61"/>
        <rect class="cls-8" x="209.09" y="266.27" width="158.08" height="95.22" rx="3.25" ry="3.25"/>
        <path class="cls-9" d="M248.83,337l21.57-47.55a1.69,1.69,0,0,1,3.05-.34l18.47,27.42a1.65,1.65,0,0,0,2.83.05l9.12-12.83a1.67,1.67,0,0,1,3,.29l16.65,32.87c.76,1.5-.13,3.44-1.57,3.44H250.45C249,340.38,248.15,338.53,248.83,337Z"/>
        <ellipse class="cls-9" cx="318.66" cy="288.32" rx="7.06" ry="8.61"/>
        <line class="cls-10" x1="129.32" y1="44.93" x2="192.97" y2="44.93"/>
        <line class="cls-11" x1="338.01" y1="44.93" x2="408.64" y2="44.93"/>
        <line class="cls-11" x1="217.78" y1="44.93" x2="304.84" y2="44.93"/>
        <line class="cls-11" x1="122.83" y1="44.93" x2="192.97" y2="44.93"/>
        <line class="cls-12" x1="332.42" y1="69.16" x2="403.06" y2="69.16"/>
        <line class="cls-12" x1="212.2" y1="69.16" x2="299.25" y2="69.16"/>
        <line class="cls-12" x1="117.24" y1="69.16" x2="187.38" y2="69.16"/>
        <line class="cls-12" x1="31.25" y1="147.35" x2="101.39" y2="147.35"/>
        <line class="cls-13" x1="30.13" y1="126.19" x2="84.98" y2="126.19"/>
        <line class="cls-12" x1="31.25" y1="172.04" x2="78.98" y2="172.04"/>
        <line class="cls-12" x1="30.17" y1="193.29" x2="90.24" y2="193.29"/>
        <line class="cls-12" x1="30.13" y1="215.09" x2="57.73" y2="215.09"/>
        <line class="cls-13" x1="30.13" y1="381.16" x2="57.73" y2="381.16"/>
        <line class="cls-12" x1="76.44" y1="381.16" x2="133.3" y2="381.16"/>
        <line class="cls-12" x1="189.36" y1="381.16" x2="246.21" y2="381.16"/>
      </g>
    </g>
    <g id="DEV">
      <path id="dev-2" data-name="dev" class="cls-14" d="M191.18,423.57H572.84c6.88,0,12.51-6,12.51-13.25V13.74C585.35,6.46,579.72.5,572.84.5h-198"/>
      <g id="coding_lines">
        <line class="cls-15" x1="402.12" y1="56.15" x2="490.49" y2="56.15"/>
        <line class="cls-16" x1="512.27" y1="56.15" x2="559.66" y2="56.15"/>
        <line class="cls-17" x1="388.11" y1="84.96" x2="528.1" y2="84.96"/>
        <line class="cls-16" x1="385.93" y1="106.73" x2="412.44" y2="106.73"/>
        <line class="cls-18" x1="442.93" y1="106.73" x2="480.71" y2="106.73"/>
        <line class="cls-16" x1="508.89" y1="106.73" x2="547.31" y2="106.73"/>
        <line class="cls-19" x1="360.15" y1="158.63" x2="457.14" y2="158.63"/>
        <line class="cls-16" x1="481.04" y1="158.63" x2="533.04" y2="158.63"/>
        <line class="cls-17" x1="367.99" y1="210.73" x2="521.62" y2="210.73"/>
        <line class="cls-16" x1="365.6" y1="232.5" x2="394.69" y2="232.5"/>
        <line class="cls-16" x1="500.54" y1="232.5" x2="542.71" y2="232.5"/>
        <line class="cls-16" x1="383.17" y1="137.97" x2="480.16" y2="137.97"/>
        <line class="cls-20" x1="504.05" y1="137.97" x2="556.06" y2="137.97"/>
        <line class="cls-19" x1="284.24" y1="340.96" x2="381.23" y2="340.96"/>
        <line class="cls-21" x1="405.13" y1="340.96" x2="457.14" y2="340.96"/>
        <line class="cls-17" x1="292.08" y1="306.38" x2="445.72" y2="306.38"/>
        <line class="cls-16" x1="289.69" y1="284.61" x2="318.78" y2="284.61"/>
        <line class="cls-16" x1="424.63" y1="284.61" x2="466.8" y2="284.61"/>
        <line class="cls-16" x1="307.26" y1="361.61" x2="404.25" y2="361.61"/>
        <line class="cls-20" x1="428.15" y1="361.61" x2="480.16" y2="361.61"/>
        <line class="cls-15" x1="269.31" y1="393.31" x2="366.3" y2="393.31"/>
        <line class="cls-21" x1="390.19" y1="393.31" x2="442.2" y2="393.31"/>
        <line class="cls-16" x1="466.8" y1="393.31" x2="518.81" y2="393.31"/>
        <line class="cls-22" x1="466.8" y1="306.38" x2="518.81" y2="306.38"/>
        <line class="cls-15" x1="350.01" y1="284.61" x2="387.79" y2="284.61"/>
        <line class="cls-16" x1="481.65" y1="340.96" x2="519.43" y2="340.96"/>
      </g>
    </g>
    <g id="center_logo">
      <circle id="center" class="cls-23" cx="293.96" cy="214.98" r="47"/>
      <g id="inside_logo">
        <line id="l" class="cls-24" x1="300.08" y1="200.89" x2="287.95" y2="227.83"/>
        <line id="l-2" data-name="l" class="cls-24" x1="283.27" y1="200.89" x2="271.14" y2="227.83"/>
        <ellipse id="o" class="cls-25" cx="311.05" cy="221.39" rx="7.69" ry="7.69"/>
      </g>
    </g>
  </g>
</svg>
