<svg xmlns="http://www.w3.org/2000/svg" viewBox="0 0 585.85 424.07"><defs><style>.cls-12,.cls-16{stroke:#ccc}.cls-12,.cls-13{stroke-miterlimit:10}.cls-12,.cls-13,.cls-15,.cls-16,.cls-17,.cls-19,.cls-20,.cls-21,.cls-24{stroke-width:4px}.cls-7{fill:#ff8c00}.cls-9{fill:#dca6d8}.cls-15,.cls-16,.cls-17,.cls-19,.cls-20,.cls-21,.cls-24{fill:none}.cls-12,.cls-13{fill:#737373}.cls-13,.cls-19{stroke:#737373}.cls-12,.cls-13,.cls-15,.cls-16,.cls-17,.cls-19,.cls-20,.cls-21,.cls-24{stroke-linecap:round}.cls-24{stroke:#292929}.cls-15{stroke:#ff8c00}.cls-15,.cls-16,.cls-17,.cls-19,.cls-20,.cls-21,.cls-24{stroke-linejoin:round}.cls-17{stroke:#fcbb6d}.cls-20{stroke:#ff14b3}.cls-21{stroke:#dca6d8}</style></defs><g id="Layer_2" data-name="Layer 2"><g id="DES"><path id="des-2" data-name="des" d="M394.67.5H13C6.13.5.5 6.46.5 13.74v396.58c0 7.29 5.63 13.25 12.51 13.25H211" stroke-miterlimit="10" stroke="#ccc" fill="#f2f2f2"/><g id="des-3" data-name="des"><circle cx="60.21" cy="69.16" r="33.55" stroke-width="4" fill="#ff14b3" stroke="#ff7900" stroke-miterlimit="10"/><rect x="122.83" y="102.71" width="280.69" height="138.67" rx="3.25" ry="3.25" opacity=".8" fill="#292929"/><path d="M158.32 205.75l38.3-69.24A3.28 3.28 0 0 1 202 136l32.83 40a3.28 3.28 0 0 0 5 .06L256 157.32a3.28 3.28 0 0 1 5.27.43l29.57 47.87a3.28 3.28 0 0 1-2.79 5H161.19a3.28 3.28 0 0 1-2.87-4.87z" fill="#b47ec8"/><circle cx="282.3" cy="134.81" r="12.54" fill="#ffa10d"/><rect x="26.81" y="265.81" width="158.08" height="95.22" rx="3.25" ry="3.25" fill="#ff5c0d" opacity=".8"/><path class="cls-7" d="M66.55 336.57L88.12 289a1.69 1.69 0 0 1 3-.34l18.47 27.42a1.65 1.65 0 0 0 2.83 0l9.12-12.83a1.67 1.67 0 0 1 3 .29l16.65 32.87c.76 1.51-.13 3.44-1.57 3.44H68.17c-1.41.06-2.3-1.78-1.62-3.28z"/><ellipse class="cls-7" cx="136.38" cy="287.85" rx="7.06" ry="8.61"/><rect x="209.09" y="266.27" width="158.08" height="95.22" rx="3.25" ry="3.25" fill="#e175e0" opacity=".8"/><path class="cls-9" d="M248.83 337l21.57-47.55a1.69 1.69 0 0 1 3.05-.34l18.47 27.42a1.65 1.65 0 0 0 2.83.05l9.12-12.83a1.67 1.67 0 0 1 3 .29l16.65 32.87c.76 1.5-.13 3.44-1.57 3.44h-71.5c-1.45.03-2.3-1.82-1.62-3.35z"/><ellipse class="cls-9" cx="318.66" cy="288.32" rx="7.06" ry="8.61"/><path fill="none" d="M129.32 44.93h63.65"/><path d="M338.01 44.93h70.63m-190.86 0h87.06m-182.01 0h70.14" stroke-width="8" stroke-linecap="round" stroke="#737373" fill="#737373" stroke-miterlimit="10"/><path class="cls-12" d="M332.42 69.16h70.64m-190.86 0h87.05m-182.01 0h70.14M31.25 147.35h70.14"/><path class="cls-13" d="M30.13 126.19h54.85"/><path class="cls-12" d="M31.25 172.04h47.73m-48.81 21.25h60.07m-60.11 21.8h27.6"/><path class="cls-13" d="M30.13 381.16h27.6"/><path class="cls-12" d="M76.44 381.16h56.86m56.06 0h56.85"/></g></g><g id="DEV"><path id="dev-2" data-name="dev" d="M191.18 423.57h381.66c6.88 0 12.51-6 12.51-13.25V13.74c0-7.28-5.63-13.24-12.51-13.24h-198" stroke="#292929" fill="#292929" stroke-miterlimit="10"/><g id="coding_lines"><path class="cls-15" d="M402.12 56.15h88.37"/><path class="cls-16" d="M512.27 56.15h47.39"/><path class="cls-17" d="M388.11 84.96H528.1"/><path class="cls-16" d="M385.93 106.73h26.51"/><path stroke="#e175e0" stroke-linejoin="round" stroke-linecap="round" fill="none" stroke-width="4" d="M442.93 106.73h37.78"/><path class="cls-16" d="M508.89 106.73h38.42"/><path class="cls-19" d="M360.15 158.63h96.99"/><path class="cls-16" d="M481.04 158.63h52"/><path class="cls-17" d="M367.99 210.73h153.63"/><path class="cls-16" d="M365.6 232.5h29.09m105.85 0h42.17m-159.54-94.53h96.99"/><path class="cls-20" d="M504.05 137.97h52.01"/><path class="cls-19" d="M284.24 340.96h96.99"/><path class="cls-21" d="M405.13 340.96h52.01"/><path class="cls-17" d="M292.08 306.38h153.64"/><path class="cls-16" d="M289.69 284.61h29.09m105.85 0h42.17m-159.54 77h96.99"/><path class="cls-20" d="M428.15 361.61h52.01"/><path class="cls-15" d="M269.31 393.31h96.99"/><path class="cls-21" d="M390.19 393.31h52.01"/><path class="cls-16" d="M466.8 393.31h52.01"/><path stroke="#f2f2f2" stroke-linejoin="round" stroke-linecap="round" fill="none" stroke-width="4" d="M466.8 306.38h52.01"/><path class="cls-15" d="M350.01 284.61h37.78"/><path class="cls-16" d="M481.65 340.96h37.78"/></g></g><g id="center_logo"><circle id="center" cx="293.96" cy="214.98" r="47" stroke="#fff" stroke-width="8" fill="#ff5c0d" stroke-miterlimit="10"/><g id="inside_logo"><path id="l" class="cls-24" d="M300.08 200.89l-12.13 26.94"/><path id="l-2" data-name="l" class="cls-24" d="M283.27 200.89l-12.13 26.94"/><ellipse id="o" cx="311.05" cy="221.39" rx="7.69" ry="7.69" fill="#292929"/></g></g></g></svg>