<svg xmlns="http://www.w3.org/2000/svg" viewBox="0 0 376.7 125.57"><defs><style>.cls-3{fill:none;stroke:#ff5c0d;stroke-linecap:round;stroke-linejoin:round;stroke-width:8px}</style></defs><g id="Layer_2" data-name="Layer 2"><g id="Logo_onBlack"><path id="bckgrd" fill="#292929" d="M0 0h376.7v125.57H0z"/><path d="M73.64 63l-3.46 3.18c-.22-.11-.33-.22-.3-.35a1.12 1.12 0 0 0-.07-.51 2.6 2.6 0 0 0-.51-.81 8.24 8.24 0 0 0-1.64-1.3 11.59 11.59 0 0 0-6.34-1.51 11.22 11.22 0 0 0-3.79.65 9.73 9.73 0 0 0-3.17 1.85 9.12 9.12 0 0 0-2.18 2.91 8.53 8.53 0 0 0-.82 3.79 9.12 9.12 0 0 0 .82 3.88 9.35 9.35 0 0 0 2.25 3.07 10.23 10.23 0 0 0 3.41 2 12.43 12.43 0 0 0 4.36.73 12 12 0 0 0 8.12-3l2.84 2.65a16.93 16.93 0 0 1-11.3 3.88 18.54 18.54 0 0 1-6.13-1 15.37 15.37 0 0 1-4.88-2.7 12.36 12.36 0 0 1-3.21-4.07 12.06 12.06 0 0 1 0-10.28 12 12 0 0 1 3.21-4.08 15.64 15.64 0 0 1 4.95-2.67 19.33 19.33 0 0 1 6.26-1 17.88 17.88 0 0 1 6.67 1.21A12.78 12.78 0 0 1 73.64 63zm20.51-1.15q4.13-3.45 11-3.45 5.69 0 9 2.29c2.19 1.53 3.28 4.07 3.28 7.64V83.6h-4.6v-2.7a19.63 19.63 0 0 1-11.1 3.29 15 15 0 0 1-4.37-.59 11.43 11.43 0 0 1-3.28-1.6A7 7 0 0 1 92 79.82a5 5 0 0 1-.71-2.48c0-2.48 1.34-4.45 4-5.89s6.55-2.23 11.61-2.37h5.82v-.92q0-3.7-1.93-5.17c-1.28-1-3.28-1.47-6-1.47a12.46 12.46 0 0 0-8.33 2.81zM113 72.05h-4.6a37.27 37.27 0 0 0-6.09.41 13.09 13.09 0 0 0-3.73 1.11 4.29 4.29 0 0 0-1.86 1.59 3.77 3.77 0 0 0-.54 1.84 3.53 3.53 0 0 0 1.9 3 8.32 8.32 0 0 0 4.67 1.24 12.26 12.26 0 0 0 3.66-.51 13.56 13.56 0 0 0 2.84-1.24 9.31 9.31 0 0 0 2-1.51 7.43 7.43 0 0 0 1.09-1.38 5.45 5.45 0 0 0 .67-2.91zm22.86 11.55V58.94h4.47v2.42a8.14 8.14 0 0 1 2.77-2.18 8 8 0 0 1 3.59-.84 6.07 6.07 0 0 1 3.49 1 4.38 4.38 0 0 1 1.93 2.66 6.49 6.49 0 0 1 2.78-2.62 8.78 8.78 0 0 1 4.13-1 5.7 5.7 0 0 1 4.67 1.81 6.35 6.35 0 0 1 1.31 4.47V83.6h-4.47V66.11a13.22 13.22 0 0 0-.2-2.64 3.13 3.13 0 0 0-.68-1.49 2.11 2.11 0 0 0-.94-.64 4.6 4.6 0 0 0-1.22-.14 3.19 3.19 0 0 0-1.76.57 6.21 6.21 0 0 0-1.56 1.43 7.06 7.06 0 0 0-1.08 2 6 6 0 0 0-.41 2.13V83.6h-4.54V66.44c0-2-.23-3.42-.71-4.1a2.78 2.78 0 0 0-2.47-1 4.46 4.46 0 0 0-3.15 1.54 5.84 5.84 0 0 0-1.52 4.29V83.6zm49.9-24.66h12.39v21.53h7.25v3.13h-20.05v-3.13h7.93v-18.4h-7.52zm7.58-9.94a3.8 3.8 0 0 1 2.44-.81 3.88 3.88 0 0 1 2.47.83 2.48 2.48 0 0 1 1.05 2 2.37 2.37 0 0 1-1.05 1.94 3.92 3.92 0 0 1-2.47.81 3.8 3.8 0 0 1-2.44-.81 2.41 2.41 0 0 1-1-1.94 2.47 2.47 0 0 1 1-2.02z" fill="#fff" stroke="#fff" stroke-miterlimit="10"/><path id="l" class="cls-3" d="M294.56 19.05l-39.48 87.74"/><path id="l-2" data-name="l" class="cls-3" d="M261.42 19.05l-39.49 87.74"/><circle id="o" cx="317.58" cy="70.01" r="15.18" fill="#ff14b3"/></g></g></svg>