<svg xmlns="http://www.w3.org/2000/svg" viewBox="0 0 286.77 95.75"><defs><style>.cls-2{fill:none;stroke:#ff5c0d;stroke-linecap:round;stroke-linejoin:round;stroke-width:8px}</style></defs><g id="Layer_2" data-name="Layer 2"><g id="Logo_Main"><path d="M27.65 48l-3.45 3.17c-.23-.1-.33-.22-.31-.35a1.15 1.15 0 0 0-.07-.51 2.6 2.6 0 0 0-.51-.81 8 8 0 0 0-1.64-1.29 11.48 11.48 0 0 0-6.34-1.52 11.12 11.12 0 0 0-3.78.65 9.48 9.48 0 0 0-3.17 1.86 9.15 9.15 0 0 0-2.19 2.9 8.71 8.71 0 0 0-.81 3.8 9.19 9.19 0 0 0 .81 3.87 9.53 9.53 0 0 0 2.25 3.07 10.52 10.52 0 0 0 3.41 2 12.72 12.72 0 0 0 4.37.72 11.94 11.94 0 0 0 8.11-3l2.85 2.65a16.94 16.94 0 0 1-11.31 3.88 18.59 18.59 0 0 1-6.13-1 15.13 15.13 0 0 1-4.87-2.7 12.39 12.39 0 0 1-3.22-3.99 12.06 12.06 0 0 1 0-10.28A12.12 12.12 0 0 1 4.87 47a15.48 15.48 0 0 1 4.94-2.67 19.7 19.7 0 0 1 6.26-1 17.68 17.68 0 0 1 6.67 1.22A12.69 12.69 0 0 1 27.65 48zm20.52-1.2q4.13-3.45 11-3.45 5.69 0 9 2.29t3.29 7.64v15.27h-4.61v-2.7a19.51 19.51 0 0 1-11.1 3.29 14.72 14.72 0 0 1-4.37-.59A11.36 11.36 0 0 1 48.1 67a7.08 7.08 0 0 1-2.1-2.23 5 5 0 0 1-.71-2.48c0-2.48 1.35-4.44 4-5.88S55.91 54.18 61 54h5.83v-.92c0-2.46-.65-4.19-1.93-5.16s-3.29-1.47-6-1.47a12.43 12.43 0 0 0-8.32 2.8zM67 57h-4.62a37.43 37.43 0 0 0-6.09.4 12.91 12.91 0 0 0-3.72 1.11 4.3 4.3 0 0 0-1.86 1.59 3.78 3.78 0 0 0-.51 1.9 3.53 3.53 0 0 0 1.89 3 8.35 8.35 0 0 0 4.68 1.25 12.14 12.14 0 0 0 3.65-.52 13.37 13.37 0 0 0 2.85-1.24 9.24 9.24 0 0 0 2-1.51 7.32 7.32 0 0 0 1.08-1.38 5.45 5.45 0 0 0 .65-2.98zm22.87 11.55V43.89h4.47v2.43a8.11 8.11 0 0 1 2.78-2.19 8 8 0 0 1 3.59-.84 6.09 6.09 0 0 1 3.48 1 4.41 4.41 0 0 1 1.93 2.59 6.55 6.55 0 0 1 2.78-2.62 8.78 8.78 0 0 1 4.13-1 5.72 5.72 0 0 1 4.67 1.81 6.36 6.36 0 0 1 1.36 4.51v18.97h-4.47V51.07a13.14 13.14 0 0 0-.21-2.65 3 3 0 0 0-.67-1.48 2.22 2.22 0 0 0-.95-.65 4.55 4.55 0 0 0-1.22-.14 3.22 3.22 0 0 0-1.76.57 6.41 6.41 0 0 0-1.56 1.43 7.21 7.21 0 0 0-1.08 2 6.22 6.22 0 0 0-.41 2.13v16.3h-4.53V51.39c0-2-.24-3.42-.71-4.1a2.8 2.8 0 0 0-2.48-1 4.42 4.42 0 0 0-3.14 1.54 5.83 5.83 0 0 0-1.53 4.29v16.43zm49.9-24.66h12.39v21.53h7.25v3.13h-20v-3.13h7.92V47h-7.52zm7.59-9.89a3.77 3.77 0 0 1 2.43-.81 3.86 3.86 0 0 1 2.48.84 2.45 2.45 0 0 1 1 2 2.4 2.4 0 0 1-1 1.94 4 4 0 0 1-2.48.81 3.77 3.77 0 0 1-2.43-.81 2.42 2.42 0 0 1-1-1.94 2.46 2.46 0 0 1 1-2.03z" stroke="#000" stroke-miterlimit="10"/><path id="l" class="cls-2" d="M248.58 4L209.1 91.75"/><path id="l-2" data-name="l" class="cls-2" d="M215.43 4l-39.48 87.75"/><circle id="o" cx="271.59" cy="54.96" r="15.18" fill="#ff14b3"/></g></g></svg>